<svg xmlns="http://www.w3.org/2000/svg" width="44" height="44" viewBox="0 0 44 44" fill="none">
  <path d="M18.9584 22.054C19.7096 23.6053 20.9639 24.8564 22.5171 25.6036C22.6317 25.6579 22.7584 25.6814 22.8848 25.6718C23.0112 25.6622 23.1329 25.6198 23.238 25.5489L25.5192 24.025C25.62 23.9567 25.7365 23.9149 25.8577 23.9038C25.979 23.8926 26.1011 23.9123 26.2127 23.9611L30.4832 25.7953C30.6292 25.856 30.7511 25.963 30.8302 26.0999C30.9094 26.2368 30.9413 26.3958 30.9212 26.5526C30.7858 27.6091 30.2702 28.58 29.4707 29.2837C28.6713 29.9874 27.6428 30.3757 26.5777 30.376C23.2864 30.376 20.1299 29.0685 17.8026 26.7412C15.4753 24.4139 14.1678 21.2574 14.1678 17.9661C14.168 16.901 14.5563 15.8725 15.2601 15.073C15.9638 14.2736 16.9347 13.7579 17.9911 13.6226C18.1479 13.6024 18.307 13.6344 18.4439 13.7135C18.5807 13.7927 18.6878 13.9146 18.7485 14.0606L20.5826 18.3402C20.6303 18.45 20.6503 18.5699 20.6407 18.6892C20.6312 18.8085 20.5924 18.9237 20.5279 19.0245L19.004 21.3423C18.9362 21.4471 18.8963 21.5676 18.8884 21.6922C18.8804 21.8168 18.9045 21.9414 18.9584 22.054V22.054Z" stroke="#0D0D0D" stroke-linecap="round" stroke-linejoin="round"/>
</svg>