<svg xmlns="http://www.w3.org/2000/svg" width="46" height="46" viewBox="0 0 46 46" fill="none">
  <path d="M19.9122 23.3445C20.6426 24.8527 21.8621 26.0692 23.3722 26.7956C23.4836 26.8484 23.6068 26.8712 23.7297 26.8619C23.8526 26.8525 23.9709 26.8114 24.0731 26.7424L26.291 25.2608C26.389 25.1944 26.5022 25.1538 26.6201 25.143C26.738 25.1321 26.8568 25.1513 26.9652 25.1987L31.1172 26.9819C31.2591 27.041 31.3777 27.1451 31.4546 27.2781C31.5316 27.4112 31.5626 27.5658 31.5431 27.7183C31.4115 28.7454 30.9101 29.6894 30.1328 30.3736C29.3556 31.0578 28.3556 31.4353 27.3201 31.4355C24.1201 31.4355 21.0512 30.1644 18.7885 27.9016C16.5258 25.6389 15.2546 22.57 15.2546 19.37C15.2548 18.3345 15.6323 17.3346 16.3165 16.5573C17.0007 15.78 17.9447 15.2787 18.9718 15.1471C19.1243 15.1275 19.2789 15.1586 19.412 15.2355C19.545 15.3125 19.6491 15.431 19.7082 15.5729L21.4914 19.7337C21.5378 19.8405 21.5572 19.9571 21.5479 20.0731C21.5386 20.1891 21.5009 20.3011 21.4382 20.3991L19.9566 22.6525C19.8906 22.7545 19.8519 22.8716 19.8441 22.9928C19.8364 23.1139 19.8598 23.235 19.9122 23.3445V23.3445Z" stroke="#37A437" stroke-linecap="round" stroke-linejoin="round"/>
</svg>