<svg xmlns="http://www.w3.org/2000/svg" width="44" height="44" viewBox="0 0 44 44" fill="none">
  <path d="M18.9077 21.9062H24.4247" stroke="#0D0D0D" stroke-linecap="round" stroke-linejoin="round"/>
  <path d="M18.9077 24.6646H24.4247" stroke="#0D0D0D" stroke-linecap="round" stroke-linejoin="round"/>
  <path d="M15.4596 14.3203H27.8728C28.0557 14.3203 28.2311 14.393 28.3605 14.5223C28.4898 14.6516 28.5624 14.827 28.5624 15.0099V28.1127C28.5624 28.6614 28.3445 29.1877 27.9565 29.5756C27.5685 29.9636 27.0423 30.1816 26.4936 30.1816H16.8389C16.2902 30.1816 15.764 29.9636 15.376 29.5756C14.988 29.1877 14.77 28.6614 14.77 28.1127V15.0099C14.77 14.827 14.8427 14.6516 14.972 14.5223C15.1013 14.393 15.2767 14.3203 15.4596 14.3203V14.3203Z" stroke="#0D0D0D" stroke-linecap="round" stroke-linejoin="round"/>
  <path d="M17.5285 12.9414V15.6999" stroke="#0D0D0D" stroke-linecap="round" stroke-linejoin="round"/>
  <path d="M21.6663 12.9414V15.6999" stroke="#0D0D0D" stroke-linecap="round" stroke-linejoin="round"/>
  <path d="M25.804 12.9414V15.6999" stroke="#0D0D0D" stroke-linecap="round" stroke-linejoin="round"/>
</svg>